:SAMPLES-PER-SECOND 24
:FULLY-SPECIFIED
:DEGREES
374
root  3.72274 41.6153 32.695 0.15271 -50.2863 9.19135
RightUpLeg  5.77659 -15.2425 -20.917
RightLeg  5.27828 -28.858 2.98153
RightFoot  15.3065 -4.47835 19.2144
RightToes  -1.74623e-010 0 -2.59999e-017
Spine  15.8199 9.64947 16.8787
Spine1  5.3776 18.2526 -26.5536
HEad  -20.6962 45.649 -33.1983
LeftShoulder1  1.4087 -4.22621 -11.0095
LeftArm  6.21511 23.917 -19.943
LeftForeArm  65.853 -78.6579 -59.4616
LeftHand  0.107876 6.27959 15.769
RightShoulder  0.876149 3.32165 4.95868
RightArm  12.385 48.7552 76.6854
RightForeArm  56.7468 75.7287 41.7414
RightHand  -1.05667 -0.692377 -25.7692
LeftUpLeg  -20.3059 0.943317 9.02084
LeftLeg  8.58301 -3.74221 0.114753
LeftFoot  23.5149 5.76885 -18.5782
LeftToes  -6.27559e-011 -2.10356e-011 8.24929e-012
375
root  2.95616 45.2778 31.7496 5.33386 -31.7098 10.912
RightUpLeg  3.92643 -13.5922 -16.1126
RightLeg  0.436096 -28.6163 7.75033
RightFoot  28.112 -6.51005 18.5651
RightToes  -1.74623e-010 0 -2.59999e-017
Spine  14.4151 8.43537 13.3627
Spine1  7.95929 17.4713 -28.015
HEad  -24.8845 49.3722 -40.9982
LeftShoulder1  1.46891 -3.86446 -12.926
LeftArm  8.33402 -3.83401 -27.2601
LeftForeArm  50.3037 -75.4694 -41.423
LeftHand  0.0346179 5.83876 13.7338
RightShoulder  1.56506 4.98866 11.1869
RightArm  10.6113 39.5758 69.1702
RightForeArm  34.3137 56.2831 15.0592
RightHand  -2.07004 2.29412 -30.5352
LeftUpLeg  -30.8691 5.40959 1.5202
LeftLeg  29.3887 -7.50781 -4.46456
LeftFoot  22.7923 5.38586 -17.935
LeftToes  -6.27559e-011 -2.10356e-011 8.24929e-012
376
root  2.77579 47.8661 30.6234 12.3117 -16.1578 13.677
RightUpLeg  -25.6457 -47.3078 1.81786
RightLeg  26.6253 16.419 13.3078
RightFoot  22.3145 -5.48408 18.4667
RightToes  -1.74623e-010 0 -2.59999e-017
Spine  14.8806 5.72325 9.9065
Spine1  7.72844 14.4067 -28.3158
HEad  -31.4866 52.2956 -51.1995
LeftShoulder1  1.72159 -3.70666 -17.2157
LeftArm  16.4237 -28.0666 -40.1217
LeftForeArm  32.1733 -68.1968 -25.7849
LeftHand  0.206311 7.34179 13.4369
RightShoulder  2.39637 5.86505 19.137
RightArm  0.132714 31.0336 48.4149
RightForeArm  17.5303 28.153 4.59636
RightHand  -2.85547 4.05914 -34.3611
LeftUpLeg  -43.4486 6.14083 -3.02967
LeftLeg  71.158 -2.44355 -6.22686
LeftFoot  13.7042 4.86911 -22.1472
LeftToes  -6.27559e-011 -2.10356e-011 8.24929e-012
377
root  2.17633 49.9445 29.7922 23.5835 -1.43112 20.7382
RightUpLeg  -64.894 -51.9154 25.2968
RightLeg  39.454 17.5503 14.6765
RightFoot  14.7108 -3.9557 17.4255
RightToes  -1.74623e-010 0 -2.59999e-017
Spine  12.8054 1.54344 0.505425
Spine1  4.61297 7.35798 -23.7252
HEad  -39.0908 51.9976 -60.0783
LeftShoulder1  1.76741 -3.76829 -17.6822
LeftArm  32.0434 -39.1071 -62.1665
LeftForeArm  20.7811 -60.2493 -18.0477
LeftHand  0.386932 8.74062 14.1745
RightShoulder  2.88221 6.04393 24.0613
RightArm  -25.7268 13.2963 31.6407
RightForeArm  25.5505 8.52526 8.90693
RightHand  -2.97224 4.49184 -34.1912
LeftUpLeg  -49.5063 9.06601 -3.23582
LeftLeg  104.05 1.92877 -7.66178
LeftFoot  11.4841 4.57506 -22.7515
LeftToes  -6.27559e-011 -2.10356e-011 8.24929e-012
378
root  1.76328 51.4539 29.5251 34.9133 8.53264 25.9362
RightUpLeg  -94.0143 -44.8532 40.6468
RightLeg  43.7423 10.1462 9.97457
RightFoot  6.78028 -2.76506 17.5045
RightToes  -1.74623e-010 0 -2.59999e-017
Spine  10.9261 -3.88016 -4.35894
Spine1  1.95939 0.234089 -17.6194
HEad  -47.6918 50.9315 -66.0002
LeftShoulder1  1.71112 -3.71014 -17.0508
LeftArm  44.6676 -41.1008 -76.4321
LeftForeArm  17.82 -58.5434 -16.9657
LeftHand  0.546808 11.1104 11.8634
RightShoulder  3.15458 5.81667 27.9043
RightArm  -25.3831 -10.6043 19.9389
RightForeArm  18.3636 6.64955 9.30899
RightHand  -2.74537 3.91525 -33.569
LeftUpLeg  -38.371 14.8075 13.481
LeftLeg  120.655 5.8689 -9.76551
LeftFoot  15.2215 5.98063 -25.4136
LeftToes  -6.27559e-011 -2.10356e-011 8.24929e-012
379
root  2.14304 51.2107 30.7021 38.2612 7.19116 28.6921
RightUpLeg  -107.681 -37.1859 38.4593
RightLeg  57.6431 10.0054 16.8214
RightFoot  3.09443 -2.23465 17.7002
RightToes  -1.74623e-010 0 -2.59999e-017
Spine  7.66089 -8.28935 -10.051
Spine1  0.66366 -4.24816 -16.8562
HEad  -57.0358 52.6713 -71.0366
LeftShoulder1  1.37881 -2.72264 -15.2653
LeftArm  41.7306 -37.1556 -76.533
LeftForeArm  28.2904 -66.4918 -24.0452
LeftHand  0.66316 15.4142 8.29049
RightShoulder  2.65198 4.89985 25.4979
RightArm  -7.92712 -28.4076 8.20761
RightForeArm  5.62732 15.1613 8.39706
RightHand  -2.37542 2.82317 -32.947
LeftUpLeg  1.33734 8.99365 34.1526
LeftLeg  98.5443 2.07821 -16.2346
LeftFoot  12.8646 6.32429 -29.3235
LeftToes  -6.27559e-011 -2.10356e-011 8.24929e-012
380
root  3.00956 50.1052 31.9758 40.36 2.82536 31.0854
RightUpLeg  -116.489 -31.4223 32.4591
RightLeg  65.0673 11.0408 23.4741
RightFoot  3.03679 -2.49904 19.784
RightToes  -1.74623e-010 0 -2.59999e-017
Spine  5.53355 -11.3069 -15.7912
Spine1  -2.70592 -9.95847 -13.4555
HEad  -59.5651 54.2823 -73.7733
LeftShoulder1  1.08475 -2.02723 -12.5343
LeftArm  33.2241 -27.3306 -71.169
LeftForeArm  56.5864 -76.9951 -49.2562
LeftHand  0.487624 19.3431 4.7658
RightShoulder  1.43719 2.65596 16.5347
RightArm  3.83012 -34.3793 -4.81235
RightForeArm  -4.86515 21.6245 5.65916
RightHand  -2.11705 1.953 -32.852
LeftUpLeg  36.0992 2.52038 34.411
LeftLeg  45.2801 -6.39904 -7.61727
LeftFoot  9.36115 5.41765 -29.333
LeftToes  -6.27559e-011 -2.10356e-011 8.24929e-012
381
root  3.05204 50.048 31.3777 47.6497 5.7063 36.2796
RightUpLeg  -115.463 -32.1149 28.7469
RightLeg  43.4339 15.8551 15.2347
RightFoot  2.27191 -2.22003 18.5804
RightToes  -1.74623e-010 0 -2.59999e-017
Spine  7.6279 -14.2972 -20.6095
Spine1  -6.39986 -15.1967 -6.97124
HEad  -52.989 51.9703 -67.6993
LeftShoulder1  1.17331 -2.92664 -11.0342
LeftArm  30.4742 -16.715 -65.2888
LeftForeArm  79.9094 -79.7792 -72.2158
LeftHand  -0.0456058 20.2588 0.497665
RightShoulder  0.717481 0.623739 10.1524
RightArm  -1.52861 -39.6046 -14.526
RightForeArm  -6.35435 25.3147 5.74848
RightHand  -1.71965 0.833574 -31.5316
LeftUpLeg  40.3004 0.650405 32.0385
LeftLeg  18.9448 -3.14952 0.0587554
LeftFoot  5.96318 4.33664 -28.215
LeftToes  -6.27559e-011 -2.10356e-011 8.24929e-012
382
root  1.93162 49.4723 31.6214 53.1177 10.6114 39.7458
RightUpLeg  -86.9911 -34.1674 2.79608
RightLeg  19.3565 4.94378 1.83098
RightFoot  6.1904 -1.90783 12.7195
RightToes  -1.74623e-010 0 -2.59999e-017
Spine  9.81805 -14.0893 -19.6482
Spine1  -4.63194 -15.0268 -9.53113
HEad  -47.9308 48.2781 -58.1109
LeftShoulder1  1.34642 -3.63303 -11.7158
LeftArm  27.4352 -9.16877 -55.5686
LeftForeArm  66.3153 -78.5828 -58.4488
LeftHand  -0.054082 18.2509 0.467608
RightShoulder  0.730157 0.640426 10.3692
RightArm  1.25303 -43.9583 -15.846
RightForeArm  -6.93957 28.9761 6.6533
RightHand  -2.03316 2.53578 -29.4404
LeftUpLeg  26.4662 4.4499 35.7359
LeftLeg  32.6071 -5.56648 -3.56861
LeftFoot  5.2256 3.98419 -27.1673
LeftToes  -6.27559e-011 -2.10356e-011 8.24929e-012
383
root  1.49382 47.752 31.3791 54.0884 15.3781 42.8077
RightUpLeg  -59.8576 -27.5749 -21.0652
RightLeg  18.3554 0.447905 -0.0275362
RightFoot  21.4936 -2.48305 9.00884
RightToes  -1.74623e-010 0 -2.59999e-017
Spine  10.3684 -13.8121 -14.3307
Spine1  1.4678 -10.9238 -17.339
HEad  -41.8879 47.0903 -51.6956
LeftShoulder1  1.70329 -3.89691 -16.2775
LeftArm  20.3311 -1.58497 -41.7521
LeftForeArm  49.6358 -75.256 -40.5911
LeftHand  0.372878 14.3559 5.81663
RightShoulder  0.928248 1.32267 12.2275
RightArm  8.95255 -37.9901 -10.6907
RightForeArm  -3.43465 32.955 7.49489
RightHand  -2.10101 3.49791 -27.1358
LeftUpLeg  18.3505 8.80976 38.4543
LeftLeg  47.4238 -4.63032 -4.84865
LeftFoot  4.48286 3.13364 -22.3789
LeftToes  -6.27559e-011 -2.10356e-011 8.24929e-012
384
root  1.47905 45.2423 31.8662 54.6852 20.3372 47.6738
RightUpLeg  -40.3328 -29.5122 -23.41
RightLeg  13.7133 4.75024 2.38321
RightFoot  27.4577 -1.26759 4.34278
RightToes  -1.74623e-010 0 -2.59999e-017
Spine  10.4453 -11.5371 -11.4942
Spine1  5.36996 -7.20564 -20.5896
HEad  -29.0942 46.0519 -45.3325
LeftShoulder1  2.05242 -4.107 -20.5431
LeftArm  15.326 9.83038 -29.488
LeftForeArm  46.1524 -73.9136 -36.0417
LeftHand  0.360827 10.3098 9.3586
RightShoulder  0.946649 1.47744 11.9899
RightArm  9.2495 -26.5062 -6.98201
RightForeArm  -2.61601 32.3685 7.29438
RightHand  -1.9518 3.28937 -25.9439
LeftUpLeg  13.9336 10.9667 38.864
LeftLeg  52.883 -1.05914 -1.0299
LeftFoot  1.12178 1.82878 -16.6556
LeftToes  -6.27559e-011 -2.10356e-011 8.24929e-012
385
root  1.27476 42.1573 32.3831 58.6165 24.4597 54.7982
RightUpLeg  -21.3979 -22.0256 -29.9856
RightLeg  2.34861 -13.8217 1.65702
RightFoot  8.29209 0.590456 -3.08066
RightToes  -1.74623e-010 0 -2.59999e-017
Spine  11.3964 -8.11491 -8.24759
Spine1  6.65083 -3.03743 -23.6383
HEad  -19.2976 41.5437 -37.7352
LeftShoulder1  2.16112 -3.9759 -22.5983
LeftArm  13.1943 16.7401 -16.5797
LeftForeArm  51.3243 -75.7278 -42.132
LeftHand  0.102309 6.86581 9.94524
RightShoulder  1.27944 2.48527 14.5582
RightArm  3.83743 -19.4686 -3.22908
RightForeArm  -5.24568 29.4615 6.6838
RightHand  -2.52449 5.73959 -26.1855
LeftUpLeg  5.03836 15.7245 37.0665
LeftLeg  62.1162 0.253623 1.15291
LeftFoot  0.110629 1.26086 -12.543
LeftToes  -6.27559e-011 -2.10356e-011 8.24929e-012
386
root  0.63179 39.8229 31.927 65.2639 25.8289 60.2174
RightUpLeg  -26.6073 -25.0137 -28.4697
RightLeg  9.18626 -18.3072 -2.15634
RightFoot  -13.686 -0.27095 -11.9092
RightToes  -1.74623e-010 0 -2.59999e-017
Spine  12.5286 -4.98824 0.162551
Spine1  8.71907 3.28508 -30.0009
HEad  -16.5032 34.5231 -35.3908
LeftShoulder1  2.33462 -3.78881 -25.8538
LeftArm  3.63626 12.6727 -9.16745
LeftForeArm  35.5716 -71.2036 -31.5821
LeftHand  -0.322238 2.89323 14.2806
RightShoulder  2.02012 4.24068 19.7057
RightArm  2.75883 -13.0755 5.48844
RightForeArm  -8.6741 24.9455 6.0876
RightHand  -2.64439 6.24092 -26.2502
LeftUpLeg  -8.56173 21.6145 27.6026
LeftLeg  75.9586 -0.103195 0.709435
LeftFoot  -0.780968 1.1511 -12.3813
LeftToes  -6.27559e-011 -2.10356e-011 8.24929e-012
